<svg width="32" height="32" viewBox="0 0 32 32" fill="none" xmlns="http://www.w3.org/2000/svg">
<path d="M6.6238 20.6081L9.31181 12.9041L7.1998 7.02406L8.9518 7.02406L11.0638 12.9041L13.8478 20.6081L18.5518 7.02406H20.3038L14.7358 23.0081H12.9598L10.1998 15.3521L7.5358 23.0081H5.7358L-0.000195473 7.02406H1.7518L6.6238 20.6081ZM29.5249 11.6801C29.4449 11.0721 29.2529 10.5441 28.9489 10.0961C28.3249 9.13606 27.2929 8.65606 25.8529 8.65606C24.6529 8.65606 23.7809 8.92806 23.2369 9.47206C22.7409 9.98406 22.4929 10.6801 22.4929 11.5601C22.4929 12.5361 22.7649 13.2081 23.3089 13.5761C23.8529 13.9441 24.6129 14.1681 25.5889 14.2481C26.5169 14.3281 27.3009 14.4561 27.9409 14.6321C28.5809 14.7921 29.1169 15.0161 29.5489 15.3041C30.6849 16.0081 31.2529 17.1121 31.2529 18.6161C31.2529 19.2081 31.1329 19.7681 30.8929 20.2961C30.6689 20.8241 30.3409 21.2961 29.9089 21.7121C28.9329 22.6721 27.5969 23.1521 25.9009 23.1521C24.1889 23.1521 22.8369 22.6801 21.8449 21.7361C20.9969 20.9521 20.4849 19.8961 20.3089 18.5681H21.9649C22.1089 19.3681 22.4449 20.0241 22.9729 20.5361C23.6609 21.1761 24.6449 21.4961 25.9249 21.4961C27.0129 21.4961 27.8929 21.2321 28.5649 20.7041C29.2529 20.1601 29.5969 19.4641 29.5969 18.6161C29.5969 18.0721 29.4849 17.6241 29.2609 17.2721C29.0529 16.9041 28.6449 16.6081 28.0369 16.3841C27.4289 16.1601 26.5649 16.0001 25.4449 15.9041C22.3729 15.6321 20.8369 14.1841 20.8369 11.5601C20.8369 10.9041 20.9409 10.3041 21.1489 9.76006C21.3729 9.20006 21.6849 8.72006 22.0849 8.32006C22.9649 7.44006 24.2129 7.00006 25.8289 7.00006H25.8529C27.5009 7.01606 28.7569 7.47206 29.6209 8.36806C30.5009 9.24806 31.0209 10.3601 31.1809 11.7041H29.5249V11.6801Z" fill="#C3DECC"/>
</svg>
