<svg width="153" height="29" viewBox="0 0 153 29" fill="none" xmlns="http://www.w3.org/2000/svg">
<path d="M8.83215 18.24L12.4162 7.968L9.60015 0.128002H11.9362L14.7522 7.968L18.4642 18.24L24.7362 0.128002H27.0722L19.6482 21.44H17.2802L13.6002 11.232L10.0482 21.44H7.64815L0.000153899 0.128002H2.33615L8.83215 18.24ZM80.5407 6.336C80.434 5.52533 80.178 4.82133 79.7727 4.224C78.9407 2.944 77.5647 2.304 75.6447 2.304C74.0447 2.304 72.882 2.66667 72.1567 3.392C71.4953 4.07467 71.1647 5.00267 71.1647 6.176C71.1647 7.47734 71.5273 8.37334 72.2527 8.864C72.978 9.35467 73.9913 9.65334 75.2927 9.76C76.53 9.86667 77.5753 10.0373 78.4287 10.272C79.282 10.4853 79.9967 10.784 80.5727 11.168C82.0873 12.1067 82.8447 13.5787 82.8447 15.584C82.8447 16.3733 82.6847 17.12 82.3647 17.824C82.066 18.528 81.6287 19.1573 81.0527 19.712C79.7513 20.992 77.97 21.632 75.7087 21.632C73.426 21.632 71.6233 21.0027 70.3007 19.744C69.17 18.6987 68.4873 17.2907 68.2527 15.52H70.4607C70.6527 16.5867 71.1007 17.4613 71.8047 18.144C72.722 18.9973 74.034 19.424 75.7407 19.424C77.1913 19.424 78.3647 19.072 79.2607 18.368C80.178 17.6427 80.6367 16.7147 80.6367 15.584C80.6367 14.8587 80.4873 14.2613 80.1887 13.792C79.9113 13.3013 79.3673 12.9067 78.5567 12.608C77.746 12.3093 76.594 12.096 75.1007 11.968C71.0047 11.6053 68.9567 9.67467 68.9567 6.176C68.9567 5.30134 69.0953 4.50134 69.3727 3.776C69.6713 3.02934 70.0873 2.38933 70.6207 1.856C71.794 0.682667 73.458 0.0960007 75.6127 0.0960007H75.6447C77.842 0.117335 79.5167 0.725335 80.6687 1.92C81.842 3.09334 82.5353 4.576 82.7487 6.368H80.5407V6.336Z" fill="#C3DECC"/>
<path d="M33.8937 21.6C32.443 21.6 31.0883 21.2373 29.8297 20.512C28.5923 19.7867 27.611 18.8053 26.8857 17.568C26.1603 16.3093 25.7977 14.9547 25.7977 13.504C25.7977 12.032 26.1603 10.6773 26.8857 9.44C27.611 8.18134 28.5923 7.18934 29.8297 6.464C31.0883 5.71734 32.443 5.344 33.8937 5.344C35.3657 5.344 36.7203 5.71734 37.9577 6.464C39.2163 7.18934 40.2083 8.18134 40.9337 9.44C41.6803 10.6773 42.0537 12.032 42.0537 13.504C42.0537 14.9547 41.6803 16.3093 40.9337 17.568C40.2083 18.8053 39.2163 19.7867 37.9577 20.512C36.7203 21.2373 35.3657 21.6 33.8937 21.6ZM33.8937 19.456C34.9817 19.456 35.9737 19.1893 36.8697 18.656C37.787 18.1227 38.5123 17.3973 39.0457 16.48C39.579 15.5627 39.8457 14.5707 39.8457 13.504C39.8457 12.416 39.579 11.4133 39.0457 10.496C38.5123 9.57867 37.787 8.85334 36.8697 8.32C35.9737 7.78667 34.9817 7.52 33.8937 7.52C32.827 7.52 31.835 7.78667 30.9177 8.32C30.0217 8.85334 29.307 9.57867 28.7737 10.496C28.2403 11.4133 27.9737 12.416 27.9737 13.504C27.9737 14.5707 28.2403 15.5627 28.7737 16.48C29.307 17.3973 30.0217 18.1227 30.9177 18.656C31.835 19.1893 32.827 19.456 33.8937 19.456ZM51.6182 7.808C51.1275 7.59467 50.6368 7.488 50.1462 7.488C49.1435 7.488 48.2795 7.85067 47.5542 8.576C46.8288 9.30134 46.4662 10.1653 46.4662 11.168V21.44H44.2902V11.168C44.2902 10.016 44.5888 8.97067 45.1862 8.032C45.8048 7.072 46.6048 6.35734 47.5862 5.888L47.6502 5.856C48.4395 5.49334 49.2715 5.312 50.1462 5.312C51.5115 5.312 52.7275 5.728 53.7942 6.56L51.6182 7.808ZM63.4322 21.44L57.6082 14.624V21.44H55.4002V1.90735e-06H57.6082V10.176L62.8562 5.44H66.1522L58.5042 12.32L66.3442 21.44H63.4322ZM85.0889 28.256V5.856H87.2649V8.512C88.0116 7.46667 88.8862 6.688 89.8889 6.176C90.8916 5.64267 91.9902 5.376 93.1849 5.376C94.6356 5.376 95.9796 5.73867 97.2169 6.464C98.4542 7.18934 99.4356 8.17067 100.161 9.408C100.886 10.6453 101.249 11.9893 101.249 13.44C101.249 14.8907 100.886 16.2347 100.161 17.472C99.4356 18.7093 98.4542 19.6907 97.2169 20.416C95.9796 21.1413 94.6356 21.504 93.1849 21.504C91.6702 21.504 90.4222 21.1947 89.4409 20.576C88.4596 19.936 87.7342 19.2533 87.2649 18.528V28.256H85.0889ZM93.1849 7.584C92.1182 7.584 91.1369 7.85067 90.2409 8.384C89.3449 8.896 88.6302 9.6 88.0969 10.496C87.5636 11.392 87.2969 12.3733 87.2969 13.44C87.2969 14.5067 87.5636 15.488 88.0969 16.384C88.6302 17.28 89.3449 17.9947 90.2409 18.528C91.1369 19.0613 92.1182 19.328 93.1849 19.328C94.2516 19.328 95.2329 19.0613 96.1289 18.528C97.0249 17.9947 97.7289 17.28 98.2409 16.384C98.7742 15.488 99.0409 14.5067 99.0409 13.44C99.0409 12.3733 98.7742 11.392 98.2409 10.496C97.7289 9.6 97.0249 8.896 96.1289 8.384C95.2329 7.85067 94.2516 7.584 93.1849 7.584ZM119.32 5.856V21.44H117.112V18.496C115.64 20.5653 113.677 21.6 111.224 21.6C109.752 21.6 108.397 21.248 107.16 20.544C105.923 19.8187 104.941 18.8373 104.216 17.6C103.512 16.3627 103.16 15.0187 103.16 13.568C103.16 12.096 103.512 10.7413 104.216 9.504C104.941 8.26667 105.923 7.296 107.16 6.592C108.397 5.86667 109.752 5.504 111.224 5.504C112.739 5.504 113.976 5.824 114.936 6.464C115.917 7.08267 116.643 7.75467 117.112 8.48V5.856H119.32ZM111.224 19.424C112.291 19.424 113.272 19.168 114.168 18.656C115.064 18.1227 115.768 17.408 116.28 16.512C116.813 15.616 117.08 14.6347 117.08 13.568C117.08 12.5013 116.813 11.52 116.28 10.624C115.768 9.70667 115.064 8.992 114.168 8.48C113.272 7.94667 112.291 7.68 111.224 7.68C110.157 7.68 109.165 7.94667 108.248 8.48C107.352 8.992 106.637 9.70667 106.104 10.624C105.592 11.52 105.336 12.5013 105.336 13.568C105.336 14.6347 105.592 15.616 106.104 16.512C106.637 17.408 107.352 18.1227 108.248 18.656C109.165 19.168 110.157 19.424 111.224 19.424ZM135.134 18.752C134.366 19.648 133.449 20.352 132.382 20.864C131.337 21.3547 130.206 21.6 128.99 21.6C127.54 21.6 126.196 21.2373 124.958 20.512C123.721 19.7867 122.74 18.8053 122.014 17.568C121.289 16.3307 120.926 14.9867 120.926 13.536C120.926 12.0853 121.289 10.7413 122.014 9.504C122.74 8.26667 123.721 7.28533 124.958 6.56C126.196 5.83467 127.54 5.472 128.99 5.472C130.206 5.472 131.337 5.728 132.382 6.24C133.449 6.73067 134.366 7.424 135.134 8.32L133.182 9.44C132.649 8.88533 132.02 8.45867 131.294 8.16C130.569 7.84 129.801 7.68 128.99 7.68C127.924 7.68 126.942 7.94667 126.046 8.48C125.15 8.992 124.436 9.696 123.902 10.592C123.369 11.488 123.102 12.4693 123.102 13.536C123.102 14.6027 123.369 15.584 123.902 16.48C124.436 17.376 125.15 18.0907 126.046 18.624C126.942 19.136 127.924 19.392 128.99 19.392C129.801 19.392 130.569 19.2427 131.294 18.944C132.02 18.624 132.649 18.1867 133.182 17.632L135.134 18.752ZM138.403 14.624C138.659 15.9893 139.331 17.1307 140.419 18.048C141.507 18.944 142.755 19.392 144.163 19.392C145.208 19.392 146.168 19.1467 147.043 18.656C147.918 18.1653 148.622 17.4933 149.155 16.64L151.043 17.728C150.318 18.9013 149.347 19.84 148.131 20.544C146.915 21.248 145.592 21.6 144.163 21.6C142.712 21.6 141.368 21.2373 140.131 20.512C138.894 19.7867 137.912 18.8053 137.187 17.568C136.462 16.3307 136.099 14.9867 136.099 13.536C136.099 12.064 136.462 10.72 137.187 9.504C137.912 8.26667 138.894 7.28533 140.131 6.56C141.368 5.83467 142.712 5.472 144.163 5.472C145.614 5.472 146.958 5.83467 148.195 6.56C149.432 7.28533 150.414 8.26667 151.139 9.504C151.864 10.72 152.227 12.064 152.227 13.536C152.227 13.792 152.206 14.1547 152.163 14.624H138.403ZM144.163 7.648C143.224 7.648 142.307 7.872 141.411 8.32C140.515 8.74667 139.79 9.344 139.235 10.112C138.68 10.8587 138.403 11.6693 138.403 12.544H149.923C149.923 11.6693 149.646 10.8587 149.091 10.112C148.536 9.344 147.811 8.74667 146.915 8.32C146.04 7.872 145.123 7.648 144.163 7.648Z" fill="black"/>
</svg>
