<svg width="32" height="17" viewBox="0 0 32 17" fill="none" xmlns="http://www.w3.org/2000/svg">
<path d="M6.6238 13.6081L9.31181 5.90406L7.1998 0.0240564H8.9518L11.0638 5.90406L13.8478 13.6081L18.5518 0.0240564H20.3038L14.7358 16.0081H12.9598L10.1998 8.35206L7.5358 16.0081H5.7358L-0.000195473 0.0240564H1.7518L6.6238 13.6081ZM29.5249 4.68006C29.4449 4.07206 29.2529 3.54406 28.9489 3.09606C28.3249 2.13606 27.2929 1.65606 25.8529 1.65606C24.6529 1.65606 23.7809 1.92806 23.2369 2.47206C22.7409 2.98406 22.4929 3.68006 22.4929 4.56006C22.4929 5.53606 22.7649 6.20806 23.3089 6.57606C23.8529 6.94406 24.6129 7.16806 25.5889 7.24806C26.5169 7.32806 27.3009 7.45606 27.9409 7.63206C28.5809 7.79206 29.1169 8.01606 29.5489 8.30406C30.6849 9.00806 31.2529 10.1121 31.2529 11.6161C31.2529 12.2081 31.1329 12.7681 30.8929 13.2961C30.6689 13.8241 30.3409 14.2961 29.9089 14.7121C28.9329 15.6721 27.5969 16.1521 25.9009 16.1521C24.1889 16.1521 22.8369 15.6801 21.8449 14.7361C20.9969 13.9521 20.4849 12.8961 20.3089 11.5681H21.9649C22.1089 12.3681 22.4449 13.0241 22.9729 13.5361C23.6609 14.1761 24.6449 14.4961 25.9249 14.4961C27.0129 14.4961 27.8929 14.2321 28.5649 13.7041C29.2529 13.1601 29.5969 12.4641 29.5969 11.6161C29.5969 11.0721 29.4849 10.6241 29.2609 10.2721C29.0529 9.90406 28.6449 9.60806 28.0369 9.38406C27.4289 9.16006 26.5649 9.00006 25.4449 8.90406C22.3729 8.63206 20.8369 7.18406 20.8369 4.56006C20.8369 3.90406 20.9409 3.30406 21.1489 2.76006C21.3729 2.20006 21.6849 1.72006 22.0849 1.32006C22.9649 0.440055 24.2129 5.53131e-05 25.8289 5.53131e-05H25.8529C27.5009 0.0160561 28.7569 0.472056 29.6209 1.36806C30.5009 2.24806 31.0209 3.36006 31.1809 4.70406H29.5249V4.68006Z" fill="#C3DECC"/>
</svg>
